<svg width="24" height="24" viewBox="0 0 24 24" fill="none" xmlns="http://www.w3.org/2000/svg">
  <path d="M3 3L21 21" stroke="#667eea" stroke-width="2" stroke-linecap="round"/>
  <path d="M10.5 10.677C9.89194 11.2634 9.5 12.0843 9.5 13C9.5 14.933 11.067 16.5 13 16.5C13.9157 16.5 14.7366 16.1081 15.323 15.5" stroke="#667eea" stroke-width="2" stroke-linecap="round"/>
  <path d="M7.362 7.561C5.68 8.741 4.279 10.42 3 12C4.889 15.991 8.282 19 12 19C13.55 19 15.043 18.633 16.395 17.974" stroke="#667eea" stroke-width="2" stroke-linecap="round"/>
  <path d="M12 5C15.718 5 19.111 8.009 21 12C20.395 13.175 19.632 14.248 18.742 15.178" stroke="#667eea" stroke-width="2" stroke-linecap="round"/>
</svg>
